# xmcd CD database file
#
# Track frame offsets:
#	150
#	33144
#	80810
#	127366
#	155737
#	195326
#	230121
#	277955
#	292016
#	326205
#
# Disc length: 4599 seconds
#
# Revision: 0
# Processed by: cddbd v1.5.2PL0 Copyright (c) Steve Scherf et al.
# Submitted via: CDex 1.51
#
DISCID=9911f50a
DTITLE=Gerry Gibbs Thrasher Big Band - LINE AT LUNA
DYEAR=2005
DGENRE=Jazz
TTITLE0=The Caribbean Song
TTITLE1=The Night The Blytheman Walked Into The Room, The Room Wend Dark and Nothing Else Mattered
TTITLE2=When I Dream
TTITLE3=You've Changed
TTITLE4=Some Skunk Funk
TTITLE5=Maiden Voyage
TTITLE6=11 Years Old
TTITLE7=Playing The Field
TTITLE8=And That's Why They Call it The Blues
TTITLE9=Song With No Title
EXTD=YEAR: 2005
EXTT0=
EXTT1=
EXTT2=
EXTT3=
EXTT4=
EXTT5=
EXTT6=
EXTT7=
EXTT8=
EXTT9=
PLAYORDER=
